<svg width="140" height="140" viewBox="0 0 140 140" fill="none" xmlns="http://www.w3.org/2000/svg">
<g clip-path="url(#clip0_1437_25)">
<rect width="140" height="140" rx="15" fill="#6D74E1"/>
<g clip-path="url(#clip1_1437_25)">
<path d="M96.9127 95.012C96.9127 94.351 96.6618 93.6635 96.16 92.8173L88.5221 79.3582L97.1636 64.7355C97.7211 63.7837 98 62.7523 98 61.7741C98 60.8486 97.7491 59.9231 97.2752 59.1297L88.996 45.3005C88.0759 43.714 86.738 43 84.8703 43H47.3208C45.258 43 44.1151 44.0842 44.1151 45.9879C44.1151 46.6492 44.3381 47.3366 44.8398 48.2091L53.0633 62.2235L43.7805 76.5817C43.2788 77.4014 43 78.3269 43 79.2524C43 80.2043 43.2788 81.1563 43.7805 81.976L52.0319 95.726C52.9797 97.2861 54.3178 98 56.1855 98H93.6791C95.7421 98 96.9127 96.9159 96.9127 95.012ZM84.0896 81.0769L91.003 93.0024C91.0586 93.1346 91.1423 93.2668 91.1423 93.399C91.1423 93.6106 90.975 93.7428 90.6964 93.7428H57.2727C56.6036 93.7428 56.1297 93.5048 55.7395 92.8702L49.0492 82.0288C48.854 81.6851 48.6868 81.3942 48.4916 81.0769H84.0896ZM84.5357 76.8197H49.077C49.2443 76.5553 49.4115 76.238 49.5788 75.9735L57.1612 64.1804H92.0066C91.7834 64.5505 91.5884 64.9472 91.3655 65.3439L84.5357 76.8197ZM92.5085 59.9231H56.8824L50.0248 47.9976C49.9412 47.8654 49.8854 47.733 49.8854 47.6274C49.8854 47.3894 50.0527 47.2573 50.3315 47.2573H83.755C84.4521 47.2573 84.926 47.5216 85.3162 48.1297L91.8114 58.733C92.0623 59.1297 92.3132 59.5264 92.5085 59.9231Z" fill="white" fill-opacity="0.85"/>
</g>
</g>
<defs>
<clipPath id="clip0_1437_25">
<rect width="140" height="140" fill="white"/>
</clipPath>
<clipPath id="clip1_1437_25">
<rect width="55" height="55" fill="white" transform="matrix(0 -1 1 0 43 98)"/>
</clipPath>
</defs>
</svg>
